<mxfile host="app.diagrams.net" modified="2021-08-28T06:09:31.413Z" agent="5.0 (Windows NT 10.0; Win64; x64) AppleWebKit/537.36 (KHTML, like Gecko) Chrome/92.0.4515.159 Safari/537.36" etag="L9lNWnhOUzGpXYi4mnpn" version="14.9.5" type="github">
  <diagram name="Page-1" id="c7488fd3-1785-93aa-aadb-54a6760d102a">
    <mxGraphModel dx="1203" dy="667" grid="1" gridSize="10" guides="1" tooltips="1" connect="1" arrows="1" fold="1" page="1" pageScale="1" pageWidth="1100" pageHeight="850" background="none" math="0" shadow="0">
      <root>
        <mxCell id="0" />
        <mxCell id="1" parent="0" />
        <mxCell id="2b4e8129b02d487f-1" value="Pool" style="swimlane;html=1;childLayout=stackLayout;horizontal=1;startSize=20;horizontalStack=0;rounded=0;shadow=0;labelBackgroundColor=none;strokeWidth=1;fontFamily=Verdana;fontSize=8;align=center;" parent="1" vertex="1">
          <mxGeometry x="180" y="70" width="680" height="620" as="geometry" />
        </mxCell>
        <mxCell id="2b4e8129b02d487f-2" value="Screen #1" style="swimlane;html=1;startSize=20;horizontal=0;" parent="2b4e8129b02d487f-1" vertex="1">
          <mxGeometry y="20" width="680" height="150" as="geometry" />
        </mxCell>
        <mxCell id="2b4e8129b02d487f-5" value="시작화면" style="ellipse;whiteSpace=wrap;html=1;rounded=0;shadow=0;labelBackgroundColor=none;strokeWidth=2;fontFamily=Verdana;fontSize=10;align=center;fillColor=#fff2cc;fontStyle=1;strokeColor=#10739E;" parent="2b4e8129b02d487f-2" vertex="1">
          <mxGeometry x="320" y="40" width="50" height="50" as="geometry" />
        </mxCell>
        <mxCell id="2b4e8129b02d487f-3" value="Screen #2" style="swimlane;html=1;startSize=20;horizontal=0;" parent="2b4e8129b02d487f-1" vertex="1">
          <mxGeometry y="170" width="680" height="150" as="geometry" />
        </mxCell>
        <mxCell id="2b4e8129b02d487f-12" value="History 생성" style="rounded=1;whiteSpace=wrap;html=1;shadow=0;labelBackgroundColor=none;strokeWidth=2;fontFamily=Verdana;fontSize=10;align=center;fillColor=#fff2cc;fontStyle=1;strokeColor=#10739E;" parent="2b4e8129b02d487f-3" vertex="1">
          <mxGeometry x="100" y="56.5" width="100" height="37" as="geometry" />
        </mxCell>
        <mxCell id="Iv8rq4O-i6lcUvwt_wAK-11" value="Screen #2" style="swimlane;html=1;startSize=20;horizontal=0;direction=west;" vertex="1" parent="2b4e8129b02d487f-3">
          <mxGeometry x="340" width="340" height="150" as="geometry" />
        </mxCell>
        <mxCell id="Iv8rq4O-i6lcUvwt_wAK-12" value="History 조회" style="rounded=1;whiteSpace=wrap;html=1;shadow=0;labelBackgroundColor=none;strokeWidth=2;fontFamily=Verdana;fontSize=10;align=center;fillColor=#fff2cc;fontStyle=1;strokeColor=#10739E;" vertex="1" parent="Iv8rq4O-i6lcUvwt_wAK-11">
          <mxGeometry x="150" y="56.5" width="90" height="37" as="geometry" />
        </mxCell>
        <mxCell id="Iv8rq4O-i6lcUvwt_wAK-34" value="" style="endArrow=classic;html=1;fontSize=15;exitX=1;exitY=0.5;exitDx=0;exitDy=0;entryX=0;entryY=0.5;entryDx=0;entryDy=0;strokeWidth=2;fillColor=#b1ddf0;strokeColor=#10739e;" edge="1" parent="2b4e8129b02d487f-3" source="2b4e8129b02d487f-12" target="Iv8rq4O-i6lcUvwt_wAK-12">
          <mxGeometry width="50" height="50" relative="1" as="geometry">
            <mxPoint x="310" y="70" as="sourcePoint" />
            <mxPoint x="360" y="20" as="targetPoint" />
          </mxGeometry>
        </mxCell>
        <mxCell id="Iv8rq4O-i6lcUvwt_wAK-36" style="edgeStyle=orthogonalEdgeStyle;rounded=0;orthogonalLoop=1;jettySize=auto;html=1;exitX=0.5;exitY=1;exitDx=0;exitDy=0;fontSize=15;" edge="1" parent="2b4e8129b02d487f-3" source="2b4e8129b02d487f-12" target="2b4e8129b02d487f-12">
          <mxGeometry relative="1" as="geometry" />
        </mxCell>
        <mxCell id="2b4e8129b02d487f-4" value="Screen #3" style="swimlane;html=1;startSize=20;horizontal=0;" parent="2b4e8129b02d487f-1" vertex="1">
          <mxGeometry y="320" width="680" height="150" as="geometry" />
        </mxCell>
        <mxCell id="2b4e8129b02d487f-14" value="Contents 생성" style="rounded=1;whiteSpace=wrap;html=1;shadow=0;labelBackgroundColor=none;strokeWidth=2;fontFamily=Verdana;fontSize=10;align=center;fillColor=#fff2cc;fontStyle=1;strokeColor=#10739E;" parent="2b4e8129b02d487f-4" vertex="1">
          <mxGeometry x="100" y="60" width="100" height="37" as="geometry" />
        </mxCell>
        <mxCell id="2b4e8129b02d487f-17" value="Contents 조회" style="rounded=1;whiteSpace=wrap;html=1;shadow=0;labelBackgroundColor=none;strokeWidth=2;fontFamily=Verdana;fontSize=10;align=center;fillColor=#fff2cc;fontStyle=1;strokeColor=#10739E;" parent="2b4e8129b02d487f-4" vertex="1">
          <mxGeometry x="490" y="60" width="90" height="37" as="geometry" />
        </mxCell>
        <mxCell id="Iv8rq4O-i6lcUvwt_wAK-35" value="" style="endArrow=classic;html=1;fontSize=15;exitX=1;exitY=0.5;exitDx=0;exitDy=0;entryX=0;entryY=0.5;entryDx=0;entryDy=0;strokeWidth=2;fillColor=#b1ddf0;strokeColor=#10739e;" edge="1" parent="2b4e8129b02d487f-4" source="2b4e8129b02d487f-14" target="2b4e8129b02d487f-17">
          <mxGeometry width="50" height="50" relative="1" as="geometry">
            <mxPoint x="230" y="-61.5" as="sourcePoint" />
            <mxPoint x="480" y="80" as="targetPoint" />
          </mxGeometry>
        </mxCell>
        <mxCell id="Iv8rq4O-i6lcUvwt_wAK-24" value="" style="edgeStyle=segmentEdgeStyle;endArrow=classic;html=1;fontSize=15;exitX=0;exitY=0.5;exitDx=0;exitDy=0;strokeWidth=2;fillColor=#b1ddf0;strokeColor=#10739e;" edge="1" parent="2b4e8129b02d487f-1" source="2b4e8129b02d487f-5" target="2b4e8129b02d487f-12">
          <mxGeometry width="50" height="50" relative="1" as="geometry">
            <mxPoint x="320" y="290" as="sourcePoint" />
            <mxPoint x="370" y="240" as="targetPoint" />
          </mxGeometry>
        </mxCell>
        <mxCell id="Iv8rq4O-i6lcUvwt_wAK-25" value="" style="edgeStyle=segmentEdgeStyle;endArrow=classic;html=1;fontSize=15;exitX=1;exitY=0.5;exitDx=0;exitDy=0;entryX=0.5;entryY=0;entryDx=0;entryDy=0;strokeWidth=2;fillColor=#b1ddf0;strokeColor=#10739E;" edge="1" parent="2b4e8129b02d487f-1" source="2b4e8129b02d487f-5" target="Iv8rq4O-i6lcUvwt_wAK-12">
          <mxGeometry width="50" height="50" relative="1" as="geometry">
            <mxPoint x="330" y="95" as="sourcePoint" />
            <mxPoint x="190" y="240" as="targetPoint" />
          </mxGeometry>
        </mxCell>
        <mxCell id="Iv8rq4O-i6lcUvwt_wAK-32" value="" style="endArrow=classic;html=1;fontSize=15;exitX=0.5;exitY=1;exitDx=0;exitDy=0;entryX=0.5;entryY=0;entryDx=0;entryDy=0;strokeWidth=2;fillColor=#b1ddf0;strokeColor=#10739e;" edge="1" parent="2b4e8129b02d487f-1" source="Iv8rq4O-i6lcUvwt_wAK-12" target="2b4e8129b02d487f-17">
          <mxGeometry width="50" height="50" relative="1" as="geometry">
            <mxPoint x="320" y="290" as="sourcePoint" />
            <mxPoint x="525" y="390" as="targetPoint" />
          </mxGeometry>
        </mxCell>
        <mxCell id="Iv8rq4O-i6lcUvwt_wAK-31" value="" style="edgeStyle=elbowEdgeStyle;elbow=vertical;endArrow=classic;html=1;fontSize=15;entryX=0.5;entryY=0;entryDx=0;entryDy=0;exitX=0.5;exitY=1;exitDx=0;exitDy=0;strokeWidth=2;fillColor=#b1ddf0;strokeColor=#10739e;" edge="1" parent="2b4e8129b02d487f-1" source="Iv8rq4O-i6lcUvwt_wAK-12" target="2b4e8129b02d487f-14">
          <mxGeometry width="50" height="50" relative="1" as="geometry">
            <mxPoint x="320" y="290" as="sourcePoint" />
            <mxPoint x="370" y="240" as="targetPoint" />
            <Array as="points">
              <mxPoint x="340" y="350" />
            </Array>
          </mxGeometry>
        </mxCell>
        <mxCell id="Iv8rq4O-i6lcUvwt_wAK-38" value="" style="edgeStyle=elbowEdgeStyle;elbow=horizontal;endArrow=classic;html=1;fontSize=15;exitX=1;exitY=0.5;exitDx=0;exitDy=0;strokeWidth=2;fillColor=#b1ddf0;entryX=1;entryY=0;entryDx=0;entryDy=0;strokeColor=#D16900;" edge="1" parent="2b4e8129b02d487f-1" source="Iv8rq4O-i6lcUvwt_wAK-12" target="2b4e8129b02d487f-5">
          <mxGeometry width="50" height="50" relative="1" as="geometry">
            <mxPoint x="330" y="95" as="sourcePoint" />
            <mxPoint x="345" y="40" as="targetPoint" />
            <Array as="points">
              <mxPoint x="600" y="140" />
              <mxPoint x="410" y="40" />
              <mxPoint x="560" y="30" />
              <mxPoint x="570" y="30" />
              <mxPoint x="610" y="120" />
              <mxPoint x="500" y="30" />
              <mxPoint x="620" y="40" />
            </Array>
          </mxGeometry>
        </mxCell>
        <mxCell id="Iv8rq4O-i6lcUvwt_wAK-40" value="" style="edgeStyle=elbowEdgeStyle;elbow=horizontal;endArrow=classic;html=1;fontSize=15;exitX=1;exitY=0.5;exitDx=0;exitDy=0;strokeWidth=2;fillColor=#b1ddf0;entryX=1;entryY=0;entryDx=0;entryDy=0;strokeColor=#D16900;" edge="1" parent="2b4e8129b02d487f-1" source="2b4e8129b02d487f-17" target="2b4e8129b02d487f-5">
          <mxGeometry width="50" height="50" relative="1" as="geometry">
            <mxPoint x="567.5" y="236.5" as="sourcePoint" />
            <mxPoint x="340" y="60" as="targetPoint" />
            <Array as="points">
              <mxPoint x="620" y="190" />
              <mxPoint x="420" y="50" />
              <mxPoint x="570" y="40" />
              <mxPoint x="580" y="40" />
              <mxPoint x="620" y="130" />
              <mxPoint x="510" y="40" />
              <mxPoint x="630" y="50" />
            </Array>
          </mxGeometry>
        </mxCell>
        <mxCell id="Iv8rq4O-i6lcUvwt_wAK-43" value="" style="edgeStyle=elbowEdgeStyle;elbow=horizontal;endArrow=classic;html=1;fontSize=15;exitX=0;exitY=0.5;exitDx=0;exitDy=0;strokeWidth=2;fillColor=#b1ddf0;entryX=0;entryY=0;entryDx=0;entryDy=0;strokeColor=#D16900;" edge="1" parent="2b4e8129b02d487f-1" source="2b4e8129b02d487f-12" target="2b4e8129b02d487f-5">
          <mxGeometry width="50" height="50" relative="1" as="geometry">
            <mxPoint x="67.32000000000005" y="217.68" as="sourcePoint" />
            <mxPoint x="-150.00233047033623" y="40.00233047033629" as="targetPoint" />
            <Array as="points">
              <mxPoint x="87.32000000000005" y="112.68" />
              <mxPoint x="-102.67999999999995" y="12.680000000000007" />
              <mxPoint x="47.32000000000005" y="2.680000000000007" />
              <mxPoint x="57.32000000000005" y="2.680000000000007" />
              <mxPoint x="97.32000000000005" y="92.68" />
              <mxPoint x="-12.67999999999995" y="2.680000000000007" />
              <mxPoint x="107.32000000000005" y="12.680000000000007" />
            </Array>
          </mxGeometry>
        </mxCell>
        <mxCell id="Iv8rq4O-i6lcUvwt_wAK-44" value="" style="edgeStyle=elbowEdgeStyle;elbow=horizontal;endArrow=classic;html=1;fontSize=15;exitX=0;exitY=0.5;exitDx=0;exitDy=0;strokeWidth=2;fillColor=#b1ddf0;entryX=0;entryY=0;entryDx=0;entryDy=0;strokeColor=#D16900;" edge="1" parent="2b4e8129b02d487f-1" source="2b4e8129b02d487f-14" target="2b4e8129b02d487f-5">
          <mxGeometry width="50" height="50" relative="1" as="geometry">
            <mxPoint x="110" y="255" as="sourcePoint" />
            <mxPoint x="337.3223304703363" y="77.32233047033628" as="targetPoint" />
            <Array as="points">
              <mxPoint x="50" y="230" />
              <mxPoint x="-92.67999999999995" y="22.680000000000007" />
              <mxPoint x="57.32000000000005" y="12.680000000000007" />
              <mxPoint x="67.32000000000005" y="12.680000000000007" />
              <mxPoint x="107.32000000000005" y="102.68" />
              <mxPoint x="-2.67999999999995" y="12.680000000000007" />
              <mxPoint x="117.32000000000005" y="22.680000000000007" />
            </Array>
          </mxGeometry>
        </mxCell>
        <mxCell id="Iv8rq4O-i6lcUvwt_wAK-1" value="Screen #4" style="swimlane;html=1;startSize=20;horizontal=0;" vertex="1" parent="1">
          <mxGeometry x="180" y="540" width="680" height="150" as="geometry" />
        </mxCell>
        <mxCell id="Iv8rq4O-i6lcUvwt_wAK-14" value="Screen #3" style="swimlane;html=1;startSize=20;horizontal=0;direction=west;" vertex="1" parent="Iv8rq4O-i6lcUvwt_wAK-1">
          <mxGeometry x="340" y="-150" width="340" height="150" as="geometry" />
        </mxCell>
        <mxCell id="Iv8rq4O-i6lcUvwt_wAK-27" value="" style="edgeStyle=elbowEdgeStyle;elbow=horizontal;endArrow=classic;html=1;fontSize=15;exitX=0;exitY=0.5;exitDx=0;exitDy=0;entryX=0;entryY=0.5;entryDx=0;entryDy=0;strokeWidth=2;fillColor=#b1ddf0;strokeColor=#10739e;" edge="1" parent="1" source="2b4e8129b02d487f-5" target="Iv8rq4O-i6lcUvwt_wAK-28">
          <mxGeometry width="50" height="50" relative="1" as="geometry">
            <mxPoint x="500" y="360" as="sourcePoint" />
            <mxPoint x="450" y="640" as="targetPoint" />
            <Array as="points">
              <mxPoint x="450" y="410" />
            </Array>
          </mxGeometry>
        </mxCell>
        <mxCell id="Iv8rq4O-i6lcUvwt_wAK-28" value="기타 화면" style="rounded=1;whiteSpace=wrap;html=1;shadow=0;labelBackgroundColor=none;strokeWidth=2;fontFamily=Verdana;fontSize=10;align=center;fillColor=#fff2cc;fontStyle=1;strokeColor=#10739E;" vertex="1" parent="1">
          <mxGeometry x="485" y="610" width="70" height="37" as="geometry" />
        </mxCell>
        <mxCell id="Iv8rq4O-i6lcUvwt_wAK-41" value="" style="edgeStyle=elbowEdgeStyle;elbow=horizontal;endArrow=classic;html=1;fontSize=15;exitX=1;exitY=0.5;exitDx=0;exitDy=0;strokeWidth=2;fillColor=#b1ddf0;entryX=1;entryY=0;entryDx=0;entryDy=0;strokeColor=#D16900;" edge="1" parent="1" source="Iv8rq4O-i6lcUvwt_wAK-28" target="2b4e8129b02d487f-5">
          <mxGeometry width="50" height="50" relative="1" as="geometry">
            <mxPoint x="770" y="478.5" as="sourcePoint" />
            <mxPoint x="552.6776695296696" y="147.32233047033037" as="targetPoint" />
            <Array as="points">
              <mxPoint x="820" y="380" />
              <mxPoint x="610" y="130" />
              <mxPoint x="760" y="120" />
              <mxPoint x="770" y="120" />
              <mxPoint x="810" y="210" />
              <mxPoint x="700" y="120" />
              <mxPoint x="820" y="130" />
            </Array>
          </mxGeometry>
        </mxCell>
        <mxCell id="Iv8rq4O-i6lcUvwt_wAK-42" value="돌아가기" style="text;html=1;strokeColor=none;fillColor=none;align=center;verticalAlign=middle;whiteSpace=wrap;rounded=0;fontSize=10;fontStyle=1" vertex="1" parent="1">
          <mxGeometry x="740" y="110" width="90" height="20" as="geometry" />
        </mxCell>
        <mxCell id="Iv8rq4O-i6lcUvwt_wAK-45" style="edgeStyle=orthogonalEdgeStyle;rounded=0;orthogonalLoop=1;jettySize=auto;html=1;exitX=0.5;exitY=1;exitDx=0;exitDy=0;entryX=0.5;entryY=0.5;entryDx=0;entryDy=0;entryPerimeter=0;fontSize=10;strokeColor=#D16900;strokeWidth=2;" edge="1" parent="1" source="Iv8rq4O-i6lcUvwt_wAK-42" target="Iv8rq4O-i6lcUvwt_wAK-42">
          <mxGeometry relative="1" as="geometry" />
        </mxCell>
        <mxCell id="Iv8rq4O-i6lcUvwt_wAK-46" value="돌아가기" style="text;html=1;strokeColor=none;fillColor=none;align=center;verticalAlign=middle;whiteSpace=wrap;rounded=0;fontSize=10;fontStyle=1" vertex="1" parent="1">
          <mxGeometry x="230" y="110" width="90" height="20" as="geometry" />
        </mxCell>
        <mxCell id="Iv8rq4O-i6lcUvwt_wAK-47" value="" style="endArrow=classic;html=1;fontSize=10;strokeWidth=2;entryX=0.5;entryY=0;entryDx=0;entryDy=0;strokeColor=#10739E;" edge="1" parent="1" target="2b4e8129b02d487f-5">
          <mxGeometry width="50" height="50" relative="1" as="geometry">
            <mxPoint x="525" y="100" as="sourcePoint" />
            <mxPoint x="600" y="360" as="targetPoint" />
          </mxGeometry>
        </mxCell>
      </root>
    </mxGraphModel>
  </diagram>
</mxfile>
